<?xml version="1.0" encoding="UTF-8" standalone="no"?>
<!-- Created with Inkscape (http://www.inkscape.org/) -->

<svg
   xmlns:dc="http://purl.org/dc/elements/1.1/"
   xmlns:cc="http://creativecommons.org/ns#"
   xmlns:rdf="http://www.w3.org/1999/02/22-rdf-syntax-ns#"
   xmlns:svg="http://www.w3.org/2000/svg"
   xmlns="http://www.w3.org/2000/svg"
   xmlns:sodipodi="http://sodipodi.sourceforge.net/DTD/sodipodi-0.dtd"
   xmlns:inkscape="http://www.inkscape.org/namespaces/inkscape"
   width="125"
   height="200"
   id="svg3439"
   version="1.1"
   inkscape:version="0.48.2 r9819"
   sodipodi:docname="New document 14">
  <defs
     id="defs3441" />
  <sodipodi:namedview
     id="base"
     pagecolor="#ffffff"
     bordercolor="#666666"
     borderopacity="1.0"
     inkscape:pageopacity="0.0"
     inkscape:pageshadow="2"
     inkscape:zoom="2.1649824"
     inkscape:cx="147.9432"
     inkscape:cy="86.129611"
     inkscape:document-units="px"
     inkscape:current-layer="layer1"
     showgrid="false"
     inkscape:window-width="900"
     inkscape:window-height="900"
     inkscape:window-x="729"
     inkscape:window-y="61"
     inkscape:window-maximized="0" />
  <metadata
     id="metadata3444">
    <rdf:RDF>
      <cc:Work
         rdf:about="">
        <dc:format>image/svg+xml</dc:format>
        <dc:type
           rdf:resource="http://purl.org/dc/dcmitype/StillImage" />
        <dc:title></dc:title>
      </cc:Work>
    </rdf:RDF>
  </metadata>
  <g
     inkscape:label="Layer 1"
     inkscape:groupmode="layer"
     id="layer1"
     transform="translate(0,-852.36218)">
    <path
       inkscape:connector-curvature="0"
       d="m 72.53965,875.62281 c -7.847857,-11.75735 -18.532922,-22.18606 -27.281312,-20.08864 -8.748182,2.09738 -13.542691,16.23734 -15.206238,30.27504 0.06108,0.0146 0.1235,0.0353 0.187882,0.063 14.448391,7.16324 32.530978,2.82794 42.160651,-10.10804 0.0447,-0.0539 0.09104,-0.10113 0.139022,-0.14137 z m -15.198411,30.30921 c -3.624394,0.86894 -5.856954,4.50951 -4.987937,8.13417 0.869014,3.62468 4.50964,5.85715 8.134033,4.98821 3.624873,-0.86907 5.857157,-4.50958 4.988142,-8.13426 -0.869016,-3.62466 -4.509366,-5.85719 -8.134238,-4.98812 z m 5.174885,21.58447 c -3.624393,0.86894 -5.85695,4.50952 -4.987934,8.13419 0.869016,3.62467 4.509639,5.85715 8.134033,4.9882 3.624873,-0.86906 5.857157,-4.50958 4.98814,-8.13424 -0.869014,-3.62468 -4.509366,-5.85721 -8.134239,-4.98815 z m 5.279432,22.02054 c -3.624394,0.86894 -5.85695,4.50952 -4.987935,8.13419 0.869012,3.62466 4.509637,5.85714 8.134031,4.98818 3.624873,-0.86906 5.857157,-4.50957 4.988143,-8.13422 -0.869015,-3.62468 -4.509366,-5.85722 -8.134239,-4.98815 z m 14.843867,-53.3952 c -0.960899,-3.43693 -2.723358,-7.63273 -5.036253,-12.02077 -11.88296,13.45456 -31.518838,18.16227 -48.210708,11.55853 -0.07175,4.95977 0.259918,9.49859 0.961704,12.99765 l -0.02015,0.005 18.295053,76.30876 52.325861,-12.54514 -18.295048,-76.30876 -0.02041,0.004 z m -25.982615,6.93542 c 5.198533,-1.24635 10.427217,1.95991 11.673568,7.15844 1.246352,5.19854 -1.960077,10.42713 -7.15861,11.67348 -5.205278,1.24796 -10.42681,-1.96001 -11.673163,-7.15856 -1.24635,-5.19853 1.952925,-10.4254 7.158205,-11.67336 z m 5.174885,21.58447 c 5.198534,-1.24635 10.427218,1.95991 11.673571,7.15846 1.246349,5.19853 -1.960079,10.42711 -7.158613,11.67346 -5.205277,1.24796 -10.426809,-1.96002 -11.67316,-7.15854 -1.246352,-5.19855 1.952924,-10.42542 7.158202,-11.67338 z m 5.279431,22.02054 c 5.198533,-1.24635 10.427219,1.9599 11.67357,7.15846 1.246349,5.19851 -1.96008,10.4271 -7.158614,11.67345 -5.205276,1.24796 -10.42681,-1.96002 -11.673158,-7.15853 -1.246352,-5.19855 1.952924,-10.42542 7.158202,-11.67338 z M 29.979555,894.70307 c 16.154267,6.31475 35.122579,1.76708 46.657415,-11.18614 -1.190374,-2.20031 -2.461153,-4.34529 -3.822419,-6.44699 -9.902403,12.66991 -27.78059,16.95622 -42.351286,10.15373 -0.260505,2.49053 -0.420244,4.97847 -0.483715,7.4794 z m 11.133756,66.15199 c -33.8643432,29.44552 -9.21263,52.93134 -2.324538,57.62024 6.888089,4.6888 7.828586,-8.2172 7.828586,-8.2172 -13.993118,-15.08973 0.50718,-24.33017 0.50718,-24.33017 l -6.011228,-25.07287 z m 56.468332,-13.53831 6.011247,25.07287 c 0,0 17.1136,1.66095 11.48419,21.45516 0,0 6.69039,11.07652 10.70354,3.77414 4.01316,-7.30247 15.3356,-39.41306 -28.198977,-50.30217 z m -31.794297,34.71316 8.822524,29.58629 c 9.31852,6.412 14.716685,-3.5282 14.716685,-3.5282 l -6.097344,-30.23978 -17.441865,4.18169 z M 80.246153,1044.863 67.066194,990.36917 c -0.08209,1.46072 -1.818799,-3.31768 -0.839933,2.50697 3.272522,19.54056 7.477764,45.79566 6.480695,55.06956 -0.968102,-0.2217 -2.001275,-0.2335 -3.030223,0.013 -2.922767,0.7008 -4.925201,3.227 -5.102745,6.0938 -0.804882,-0.232 -1.683247,-0.2591 -2.555144,-0.05 -2.684638,0.6436 -4.35532,3.3209 -3.779871,6.0216 -4.035692,1.1981 -6.467183,5.3908 -5.467507,9.5604 0.307109,1.2809 0.902826,2.4134 1.695777,3.3472 l 80.069677,-19.1967 c 0.28342,-1.192 0.3009,-2.4714 -0.006,-3.7523 -0.99968,-4.1696 -5.06799,-6.8039 -9.20823,-6.0419 -0.71172,-2.6681 -3.41496,-4.2966 -6.09939,-3.653 -0.8721,0.209 -1.64262,0.6314 -2.25484,1.2033 -1.45791,-2.4748 -4.38822,-3.8184 -7.31112,-3.1176 -1.02881,0.2466 -1.94429,0.7254 -2.7067,1.3621 -5.09393,-7.8137 -13.250873,-33.1214 -19.194335,-52.02154 -1.768934,-5.63523 -1.149871,-0.58887 -1.885379,-1.85359 l 12.573394,52.92463 c -0.18901,0.023 -0.38812,0.064 -0.578887,0.1097 -1.791818,0.4297 -3.212057,1.5986 -4.009848,3.1085 -0.694162,-0.1002 -1.416725,-0.078 -2.138734,0.095 -0.381681,0.091 -0.746552,0.2224 -1.082848,0.3821 -0.747231,-2.1552 -3.020585,-3.4331 -5.282522,-2.8908 -1.962293,0.4705 -3.307632,2.162 -3.431678,4.0794 -0.603143,0.3392 -1.162512,0.7399 -1.673465,1.1938"
       style="fill:#d40000;fill-opacity:1;fill-rule:nonzero;stroke:none"
       id="path3202" />
  </g>
</svg>
