<?xml version="1.0" encoding="UTF-8" standalone="no"?>
<!-- Created with Inkscape (http://www.inkscape.org/) -->

<svg
   xmlns:dc="http://purl.org/dc/elements/1.1/"
   xmlns:cc="http://creativecommons.org/ns#"
   xmlns:rdf="http://www.w3.org/1999/02/22-rdf-syntax-ns#"
   xmlns:svg="http://www.w3.org/2000/svg"
   xmlns="http://www.w3.org/2000/svg"
   xmlns:sodipodi="http://sodipodi.sourceforge.net/DTD/sodipodi-0.dtd"
   xmlns:inkscape="http://www.inkscape.org/namespaces/inkscape"
   width="200"
   height="200"
   id="svg3350"
   version="1.1"
   inkscape:version="0.48.2 r9819"
   inkscape:export-filename="/Users/nick/Repositories/Data.Lincoln/assets/img/hero-developer.png"
   inkscape:export-xdpi="90"
   inkscape:export-ydpi="90"
   sodipodi:docname="New document 7">
  <defs
     id="defs3352" />
  <sodipodi:namedview
     id="base"
     pagecolor="#ffffff"
     bordercolor="#666666"
     borderopacity="1.0"
     inkscape:pageopacity="0.0"
     inkscape:pageshadow="2"
     inkscape:zoom="1.08"
     inkscape:cx="187.41097"
     inkscape:cy="132.09005"
     inkscape:document-units="px"
     inkscape:current-layer="layer1"
     showgrid="false"
     inkscape:window-width="879"
     inkscape:window-height="720"
     inkscape:window-x="876"
     inkscape:window-y="107"
     inkscape:window-maximized="0" />
  <metadata
     id="metadata3355">
    <rdf:RDF>
      <cc:Work
         rdf:about="">
        <dc:format>image/svg+xml</dc:format>
        <dc:type
           rdf:resource="http://purl.org/dc/dcmitype/StillImage" />
        <dc:title></dc:title>
      </cc:Work>
    </rdf:RDF>
  </metadata>
  <g
     inkscape:label="Layer 1"
     inkscape:groupmode="layer"
     id="layer1"
     transform="translate(0,-852.36218)">
    <path
       inkscape:connector-curvature="0"
       d="m 31.736175,969.25303 c 6.733725,23.02672 23.181343,41.89777 44.599338,51.90027 0.690904,2.4336 1.618982,4.692 2.742988,6.7647 -5.980952,3.8876 -13.106534,6.1459 -20.768339,6.1459 -21.067388,0 -38.154348,-17.087 -38.154348,-38.15433 0,-10.45636 4.20729,-19.92284 11.013201,-26.82153 l 0.56716,0.16499 z m 56.066266,68.95637 c 6.671856,5.1869 15.158619,7.7856 23.614449,7.7856 8.41458,0 16.86011,-2.5678 23.51133,-7.7031 8.33208,5.785 18.44814,9.1776 29.35821,9.1776 28.48171,0 51.55994,-23.0885 51.55994,-51.55993 0,-13.08591 -4.87757,-25.03759 -12.9106,-34.13273 3.69168,-4.24854 5.92938,-9.8067 5.92938,-15.88045 0,-11.14726 -7.51743,-20.53117 -17.76755,-23.35665 -7.11527,-24.30535 -25.0478,-43.99094 -48.22915,-53.48828 l 0,-4.80538 -7.2184,0 0,2.22739 c -4.6507,-1.41274 -9.47671,-2.43363 -14.43677,-3.02141 l 0,-8.81675 -19.59278,0 0,8.81675 c -4.588831,0.54653 -9.074545,1.45399 -13.405579,2.71205 l 0,-1.91803 -7.21839,0 0,4.38259 c -23.686631,9.33235 -42.041966,29.2448 -49.260356,53.91107 -10.250116,2.82548 -17.767553,12.20939 -17.767553,23.35665 0,6.01188 2.186142,11.50817 5.805648,15.7464 -8.10522,9.10544 -13.024038,21.11899 -13.024038,34.26678 0,28.47143 23.088536,51.55993 51.55993,51.55993 10.961641,0 21.12926,-3.4235 29.492279,-9.2601 z m 55.890959,-10.178 c 1.15494,-2.1036 2.09333,-4.4032 2.80487,-6.8781 21.41798,-10.0025 37.8656,-28.87355 44.59933,-51.90027 l 0.38155,-0.10314 c 6.78529,6.88838 10.96164,16.33424 10.96164,26.75966 0,21.06735 -17.07666,38.15435 -38.15436,38.15435 -7.5793,0 -14.64302,-2.217 -20.59303,-6.0325 z M 80.243757,990.9495 c 2.031461,-4.38259 4.68164,-8.50738 7.816485,-12.0547 6.455303,-6.50695 14.921438,-9.73457 23.356648,-9.73457 8.43521,0 16.90135,3.22762 23.34634,9.73457 3.14515,3.54732 5.79533,7.67211 7.82679,12.0547 2.13458,5.3107 3.37202,11.601 3.37202,18.8813 0,6.6512 -1.47461,12.3228 -3.99073,17.025 -2.65019,-1.9179 -5.04257,-4.1557 -7.11528,-6.6718 -3.75356,2.0314 -7.5793,5.0839 -9.51796,9.5076 2.35113,2.7019 4.9807,5.1664 7.84742,7.3422 -6.18719,4.5991 -13.96243,6.8988 -21.7686,6.8988 -7.85774,0 -15.674219,-2.3305 -21.882036,-6.9917 2.815173,-2.1449 5.403482,-4.5784 7.723678,-7.2493 -1.938653,-4.4237 -5.764399,-7.4762 -9.50765,-9.5076 -2.031461,2.4646 -4.372282,4.661 -6.960591,6.5482 -2.474876,-4.6714 -3.918554,-10.312 -3.918554,-16.9014 0,-7.2803 1.237437,-13.5706 3.37202,-18.8813 z m 27.935173,-23.7073 c 1.07244,-0.13407 2.14489,-0.20624 3.23796,-0.20624 1.09307,0 2.16551,0.0721 3.22765,0.20624 -1.07245,-0.0928 -2.14489,-0.14437 -3.22765,-0.14437 -1.08276,0 -2.1552,0.0515 -3.23796,0.14437 z m 79.40229,-26.49149 c 0.76309,2.60892 1.17557,5.37254 1.17557,8.23927 0,14.69458 -10.78635,26.88332 -24.88283,29.04891 l -0.25781,0.18563 c -0.73214,0.0512 -1.4746,0.0718 -2.22738,0.0824 -0.65997,0.0512 -1.34055,0.0718 -2.02116,0.0718 -2.19644,0 -4.33102,-0.23716 -6.39342,-0.70121 -13.06529,-2.11403 -25.10968,-9.37365 -32.99835,-19.24221 -8.40428,-5.46536 -15.94233,-1.88709 -18.89156,-0.0206 -6.527488,8.16709 -15.880459,14.55017 -26.316189,17.71595 -3.475139,1.44376 -7.300885,2.2481 -11.301937,2.2481 -0.711526,0 -1.423053,-0.0206 -2.124268,-0.0718 -0.464039,0.01 -0.928079,0.01 -1.392118,0.01 l -0.247488,-0.17548 c -14.457405,-1.84504 -25.625285,-14.19875 -25.625285,-29.15114 0,-2.60893 0.948702,-6.0222 1.649917,-8.1671 16.715729,2.24802 80.856278,9.49734 151.854308,-0.0721 z m -80.80473,-80.9594 9.79639,0 0,83.24866 -9.79639,0 0,-83.24866 z m -23.717562,7.03276 3.609195,0 0,73.40072 -3.609195,0 0,-73.40072 z m 54.137922,-0.0721 3.6092,0 0,73.3904 -3.6092,0 0,-73.3904"
       style="fill:#008080;fill-opacity:1;fill-rule:nonzero;stroke:none"
       id="path3210" />
  </g>
</svg>
